# xmcd
#
# Track frame offsets:
#	150
#	16922
#	37828
#	50318
#	55362
#	63855
#	73877
#	88673
#	98850
#	108667
#	115152
#	135414
#	146707
#	161329
#
# Disc length: 2461 seconds
# Revision: 0
# Processed by: cddbd v1.5.2PL0 Copyright (c) Steve Scherf et al.
# Submitted via: dBpowerAMP V12.0
#
DISCID=bb099b0e
DTITLE=Glen Campbell - Rhinestone cowboy CD-2 (2005)
DYEAR=1900
DGENRE=Country
TTITLE0=Feelings
TTITLE1=Bridge over trouble water
TTITLE2=You'll never walk alone
TTITLE3=Galveston
TTITLE4=Wichita Lineman
TTITLE5=Gentle on my mind
TTITLE6=I'm so lonesome I could cry
TTITLE7=Try a little kindness
TTITLE8=Dreams of the everyday housewive
TTITLE9=Country boy (You got your feet in L.A.)
TTITLE10=Amazing Graze
TTITLE11=It's only make believe
TTITLE12=Crying
TTITLE13=Blue grass medley
EXTD=
EXTT0=
EXTT1=
EXTT2=
EXTT3=
EXTT4=
EXTT5=
EXTT6=
EXTT7=
EXTT8=
EXTT9=
EXTT10=
EXTT11=
EXTT12=
EXTT13=
PLAYORDER=
